# xmcd
#
# Track frame offsets:
# 150
# 16302
# 36646
# 57493
# 78201
# 92066
# 107329
# 121112
# 143550
# 172435
# 194730
# 217686
# 233899
# 251783
#
# Disc length: 3704 seconds
#
#
# Revision: 2
# Processed by: cddbd v1.5.1PL2 Copyright (c) Steve Scherf et al.
# Submitted via: FreeRIP 2.942 
#
DISCID=c20e760e
DTITLE=Various Artist - Southern Rock Greatest Hits
DYEAR=2002
DGENRE=Southern-Rock
TTITLE0=Charlie Daniels Band-The Devil Went Down To Georgia
TTITLE1=Lynyrd Skynyrd-Gimme Three Steps
TTITLE2=38 Specia-Caught Up In You
TTITLE3=Elvin Bishop-Fooled Around And Fell In Love
TTITLE4=Ozark Mountain Daredevils-If You Wanna Get To Heaven
TTITLE5=Georgia Satellites-Keep Your Hands To Yourself
TTITLE6=Outlaws-There Goes Another Love Song
TTITLE7=Molly Hatchet-Flirtin' With Disaster
TTITLE8=Marshall Tucker Band-Can't You See (Live)
TTITLE9=Allman Brothers Band-One Way Out
TTITLE10=Atlanta Rhythm Section-Imaginary Lover
TTITLE11=Blackfoot-Train Train
TTITLE12=Point Blank-Nicole
TTITLE13=Lynyrd Skynyrd-That Smell
EXTD=YEAR: 2003
EXTT0=
EXTT1=
EXTT2=
EXTT3=
EXTT4=
EXTT5=
EXTT6=
EXTT7=
EXTT8=
EXTT9=
EXTT10=
EXTT11=
EXTT12=
EXTT13=
PLAYORDER=
